# xmcd
#
# Track frame offsets:
#	150
#	13723
#	33224
#	59805
#	75439
#	107105
#	127938
#	145672
#	167157
#	189381
#	207696
#	227629
#	244524
#	267993
#	298016
#	313515
#
# Disc length: 4333 seconds
#
# Revision: 0
# Processed by: cddbd v1.5.2PL0 Copyright (c) Steve Scherf et al.
# Submitted via: dBpowerAMP V4.0
#
DISCID=df10eb10
DTITLE=Terminaator - Ingli puudutus
DYEAR=2009
DGENRE=Rock and Roll
TTITLE0=Osa minust (akustiline versioon)
TTITLE1=See ei ole saladus (akustiline versioon)
TTITLE2=Armudes üksindusse (akustiline versioon)
TTITLE3=Romula (akustiline versioon)
TTITLE4=Preeriatuul (akustiline versioon)
TTITLE5=Pankuri tütar ja töölise poeg (akustiline versioon)
TTITLE6=ðaakali päev  (akustiline versioon)
TTITLE7=Ainult sina võid mu maailma muuta (akustiline versioon)
TTITLE8=Alkeemik (akustiline versioon)
TTITLE9=Viski (akustiline versioon)
TTITLE10=Tahan ärgata üles (akustiline versioon)
TTITLE11=Lasud (akustiline versioon)
TTITLE12=Nagu esimene kord (akustiline versioon)
TTITLE13=Ingli puudutus (akustiline versioon)
TTITLE14=Ütle miks? (akustiline versioon)
TTITLE15=Pilves selgimistega (akustiline versioon)
EXTD=
EXTT0=
EXTT1=
EXTT2=
EXTT3=
EXTT4=
EXTT5=
EXTT6=
EXTT7=
EXTT8=
EXTT9=
EXTT10=
EXTT11=
EXTT12=
EXTT13=
EXTT14=
EXTT15=
PLAYORDER=
